# xmcd
#
# Track frame offsets: 
#        150
#        17230
#        43665
#
# Disc length: 852 seconds
#
# Revision: 0
# Processed by: cddbd v1.5.2PL0 Copyright (c) Steve Scherf et al.
# Submitted via: ExactAudioCopy v0.99pb5
#
DISCID=1e035203
DTITLE=Ultra - (Maxi) Rescue Me
DYEAR=1998
DGENRE=
TTITLE0=Rescue me (Ultra radio edit)
TTITLE1=Rescue me (Steelworks 12" mix)
TTITLE2=Rescue me (Orchestral mix)
EXTD=
EXTT0=
EXTT1=
EXTT2=
PLAYORDER=
